<?xml version="1.0" standalone="no"?>
<!DOCTYPE svg PUBLIC "-//W3C//DTD SVG 20010904//EN"
 "http://www.w3.org/TR/2001/REC-SVG-20010904/DTD/svg10.dtd">
<svg version="1.0" xmlns="http://www.w3.org/2000/svg"
 width="2000.000000pt" height="1500.000000pt" viewBox="0 0 2000.000000 1500.000000"
 preserveAspectRatio="xMidYMid meet">

<g transform="translate(0.000000,1500.000000) scale(0.100000,-0.100000)"
fill="#000000" stroke="none">
<path d="M2520 7500 l0 -2090 7480 0 7480 0 0 2090 0 2090 -7480 0 -7480 0 0
-2090z m7085 1175 c72 -8 136 -15 143 -15 9 0 12 -238 12 -1155 l0 -1155 -170
0 -169 0 -5 33 c-3 17 -8 59 -12 92 -6 59 -6 60 -22 35 -30 -48 -137 -146
-185 -169 -72 -35 -161 -47 -247 -34 -240 37 -388 244 -440 615 -16 108 -13
392 4 500 36 223 117 394 237 502 86 77 184 116 294 116 109 0 198 -36 283
-114 l42 -39 0 400 c0 220 3 403 7 406 4 4 27 5 52 2 25 -3 105 -12 176 -20z
m3655 -1150 l0 -1175 -190 0 -190 0 0 1155 c0 1093 1 1155 18 1156 9 0 87 8
172 18 85 10 163 19 173 20 16 1 17 -61 17 -1174z m-9450 60 l0 -915 345 0
c190 0 345 -4 345 -9 0 -4 -9 -75 -20 -156 -11 -81 -20 -149 -20 -151 0 -2
-236 -4 -525 -4 l-525 0 0 1075 0 1075 200 0 200 0 0 -915z m1568 439 c192
-40 304 -145 358 -339 15 -51 18 -131 23 -545 7 -529 6 -528 65 -560 14 -7 26
-16 26 -19 0 -3 -17 -60 -38 -126 -28 -87 -43 -121 -55 -123 -33 -7 -153 37
-198 72 -27 20 -57 57 -75 91 l-31 56 -38 -50 c-103 -135 -260 -199 -428 -174
-225 32 -363 196 -382 456 -12 160 37 323 124 414 116 121 252 168 509 180
l144 6 -4 121 c-3 102 -7 129 -26 168 -45 91 -144 122 -303 95 -53 -9 -133
-28 -178 -42 -46 -15 -84 -25 -85 -23 -2 2 -21 57 -45 122 -32 92 -39 121 -29
128 29 18 234 79 311 92 113 19 263 19 355 0z m1540 7 c23 -5 45 -11 48 -14 6
-5 -22 -192 -47 -313 l-10 -51 -78 5 c-45 3 -93 0 -113 -7 -81 -27 -155 -143
-197 -310 -20 -80 -21 -110 -21 -538 l0 -453 -190 0 -190 0 0 825 0 825 164 0
164 0 6 -27 c2 -16 7 -59 11 -98 3 -38 9 -90 12 -114 l6 -44 21 49 c35 81 56
114 98 160 87 94 191 129 316 105z m906 -6 c150 -32 256 -107 314 -222 56
-109 55 -104 61 -633 7 -544 7 -545 69 -588 l30 -22 -38 -122 -37 -123 -39 2
c-104 4 -219 81 -259 171 -17 39 -35 55 -35 32 0 -20 -121 -137 -168 -163
-217 -118 -487 -46 -605 163 -59 105 -81 274 -54 416 54 286 276 424 681 424
l88 0 -4 118 c-3 104 -7 125 -31 175 -22 44 -36 60 -70 76 -87 41 -198 37
-372 -15 -49 -14 -97 -28 -106 -31 -13 -4 -25 21 -58 116 -22 67 -41 123 -41
125 0 7 132 54 211 76 152 41 340 51 463 25z m3031 0 c176 -37 318 -150 400
-318 55 -114 82 -223 97 -394 22 -246 -14 -489 -97 -658 -122 -250 -331 -371
-606 -351 -368 25 -578 300 -605 792 -12 226 24 443 102 603 37 76 60 109 123
170 94 94 173 135 316 165 48 9 206 4 270 -9z m1528 0 c37 -8 97 -30 135 -49
72 -39 161 -105 162 -121 0 -8 -132 -190 -155 -213 -1 -2 -31 15 -65 37 -76
49 -114 61 -201 61 -127 0 -208 -76 -250 -235 -30 -112 -39 -455 -15 -593 33
-193 111 -287 246 -299 72 -7 147 15 218 62 30 19 55 35 56 35 7 0 166 -210
166 -219 0 -17 -117 -100 -186 -133 -227 -107 -530 -59 -699 111 -143 142
-209 327 -222 616 -10 246 22 425 108 603 109 226 304 350 549 351 47 0 115
-6 153 -14z m2616 0 c274 -65 434 -302 460 -683 4 -64 6 -156 3 -204 l-5 -88
-425 0 -425 0 6 -83 c10 -124 49 -239 101 -295 53 -59 160 -88 265 -72 70 11
175 55 227 95 17 13 36 26 42 27 5 2 44 -44 87 -102 l76 -105 -47 -43 c-63
-57 -162 -111 -259 -141 -106 -32 -316 -36 -410 -7 -217 65 -373 237 -434 478
-56 216 -56 502 0 723 25 100 93 243 148 313 75 94 196 168 316 192 67 13 206
11 274 -5z m1541 4 c46 -10 51 -14 47 -33 -3 -11 -18 -93 -33 -182 l-27 -161
-79 5 c-96 6 -153 -13 -199 -66 -41 -46 -82 -137 -109 -238 -19 -73 -20 -106
-20 -541 l0 -463 -195 0 -195 0 2 823 3 822 168 3 167 2 1 -27 c1 -16 6 -79
13 -142 l11 -115 43 86 c92 187 229 264 402 227z m-2450 -33 c0 -2 -95 -162
-211 -356 -116 -194 -213 -358 -215 -365 -5 -11 114 -248 388 -772 l79 -153
-206 0 -207 0 -219 447 c-187 378 -219 450 -210 469 5 12 52 93 104 180 52 88
147 248 211 357 l117 197 184 0 c102 0 185 -2 185 -4z"/>
<path d="M9065 7734 c-46 -24 -65 -44 -96 -106 -40 -78 -58 -164 -69 -324 -11
-151 1 -374 25 -482 57 -251 249 -306 397 -114 l48 63 0 414 0 414 -42 52
c-55 67 -114 99 -182 99 -28 0 -64 -7 -81 -16z"/>
<path d="M5195 7123 c-87 -19 -141 -58 -178 -127 -19 -36 -22 -57 -22 -161 0
-109 2 -125 25 -169 30 -58 75 -86 138 -86 78 0 147 50 196 144 25 47 26 55
26 227 l0 179 -82 -1 c-46 -1 -92 -3 -103 -6z"/>
<path d="M7627 7119 c-129 -30 -190 -122 -189 -283 0 -174 55 -256 169 -256
81 1 148 52 199 151 23 46 24 58 24 224 l0 175 -82 -1 c-46 -1 -100 -5 -121
-10z"/>
<path d="M10620 7734 c-45 -19 -87 -59 -110 -105 -81 -156 -93 -627 -23 -855
35 -115 110 -177 212 -177 135 0 208 89 243 295 17 100 17 471 -1 568 -27 151
-75 235 -156 271 -49 22 -118 24 -165 3z"/>
<path d="M14759 7747 c-83 -44 -134 -168 -146 -359 l-6 -88 242 0 241 0 0 73
c0 134 -31 264 -77 325 -54 72 -168 94 -254 49z"/>
</g>
</svg>
